<mxfile host="app.diagrams.net" modified="2024-06-06T14:50:35.375Z" agent="Mozilla/5.0 (Windows NT 10.0; Win64; x64) AppleWebKit/537.36 (KHTML, like Gecko) Chrome/121.0.0.0 Safari/537.36" etag="vk0twaoA_G3iIRtWkOr2" version="24.4.15" type="device" pages="3">
  <diagram name="Página-1" id="XZ8w7VEDlfYTN0CXsPS6">
    <mxGraphModel dx="1434" dy="782" grid="1" gridSize="10" guides="1" tooltips="1" connect="1" arrows="1" fold="1" page="1" pageScale="1" pageWidth="827" pageHeight="1169" math="0" shadow="0">
      <root>
        <mxCell id="0" />
        <mxCell id="1" parent="0" />
        <mxCell id="7us5fRCtFp0MgMIEdXxI-1" value="início" style="ellipse;whiteSpace=wrap;html=1;" parent="1" vertex="1">
          <mxGeometry x="80" y="20" width="140" height="80" as="geometry" />
        </mxCell>
        <mxCell id="7us5fRCtFp0MgMIEdXxI-2" value="" style="endArrow=classic;html=1;rounded=0;exitX=0.5;exitY=1;exitDx=0;exitDy=0;" parent="1" source="7us5fRCtFp0MgMIEdXxI-1" edge="1">
          <mxGeometry width="50" height="50" relative="1" as="geometry">
            <mxPoint x="125" y="140" as="sourcePoint" />
            <mxPoint x="150" y="150" as="targetPoint" />
          </mxGeometry>
        </mxCell>
        <mxCell id="7us5fRCtFp0MgMIEdXxI-3" value="gerente solicita produto" style="rounded=0;whiteSpace=wrap;html=1;" parent="1" vertex="1">
          <mxGeometry x="80" y="150" width="130" height="60" as="geometry" />
        </mxCell>
        <mxCell id="7us5fRCtFp0MgMIEdXxI-4" value="" style="endArrow=classic;html=1;rounded=0;" parent="1" edge="1">
          <mxGeometry width="50" height="50" relative="1" as="geometry">
            <mxPoint x="150" y="210" as="sourcePoint" />
            <mxPoint x="150" y="260" as="targetPoint" />
          </mxGeometry>
        </mxCell>
        <mxCell id="7us5fRCtFp0MgMIEdXxI-5" value="entrou produto?" style="rhombus;whiteSpace=wrap;html=1;" parent="1" vertex="1">
          <mxGeometry x="100" y="260" width="100" height="100" as="geometry" />
        </mxCell>
        <mxCell id="7us5fRCtFp0MgMIEdXxI-6" value="" style="endArrow=classic;html=1;rounded=0;exitX=0.5;exitY=1;exitDx=0;exitDy=0;" parent="1" source="7us5fRCtFp0MgMIEdXxI-5" edge="1">
          <mxGeometry width="50" height="50" relative="1" as="geometry">
            <mxPoint x="100" y="410" as="sourcePoint" />
            <mxPoint x="150" y="420" as="targetPoint" />
          </mxGeometry>
        </mxCell>
        <mxCell id="7us5fRCtFp0MgMIEdXxI-7" value="entrada de produtos" style="rounded=0;whiteSpace=wrap;html=1;" parent="1" vertex="1">
          <mxGeometry x="90" y="420" width="120" height="60" as="geometry" />
        </mxCell>
        <mxCell id="7us5fRCtFp0MgMIEdXxI-8" value="sim" style="text;html=1;align=center;verticalAlign=middle;whiteSpace=wrap;rounded=0;fontSize=16;" parent="1" vertex="1">
          <mxGeometry x="160" y="370" width="40" height="30" as="geometry" />
        </mxCell>
        <mxCell id="7us5fRCtFp0MgMIEdXxI-9" value="" style="endArrow=classic;html=1;rounded=0;" parent="1" edge="1">
          <mxGeometry width="50" height="50" relative="1" as="geometry">
            <mxPoint x="200" y="310" as="sourcePoint" />
            <mxPoint x="240" y="310" as="targetPoint" />
          </mxGeometry>
        </mxCell>
        <mxCell id="7us5fRCtFp0MgMIEdXxI-10" value="não" style="text;html=1;align=center;verticalAlign=middle;whiteSpace=wrap;rounded=0;" parent="1" vertex="1">
          <mxGeometry x="190" y="280" width="60" height="30" as="geometry" />
        </mxCell>
        <mxCell id="7us5fRCtFp0MgMIEdXxI-14" style="edgeStyle=orthogonalEdgeStyle;rounded=0;orthogonalLoop=1;jettySize=auto;html=1;exitX=0.5;exitY=0;exitDx=0;exitDy=0;" parent="1" source="7us5fRCtFp0MgMIEdXxI-11" edge="1">
          <mxGeometry relative="1" as="geometry">
            <mxPoint x="300" y="280" as="targetPoint" />
            <Array as="points">
              <mxPoint x="300" y="280" />
              <mxPoint x="300" y="280" />
            </Array>
          </mxGeometry>
        </mxCell>
        <mxCell id="7us5fRCtFp0MgMIEdXxI-11" value="saida de produtos" style="rounded=0;whiteSpace=wrap;html=1;" parent="1" vertex="1">
          <mxGeometry x="240" y="280" width="120" height="60" as="geometry" />
        </mxCell>
        <mxCell id="7us5fRCtFp0MgMIEdXxI-12" value="" style="endArrow=classic;html=1;rounded=0;" parent="1" edge="1">
          <mxGeometry width="50" height="50" relative="1" as="geometry">
            <mxPoint x="360" y="310" as="sourcePoint" />
            <mxPoint x="400" y="310" as="targetPoint" />
          </mxGeometry>
        </mxCell>
        <mxCell id="7us5fRCtFp0MgMIEdXxI-21" style="edgeStyle=orthogonalEdgeStyle;rounded=0;orthogonalLoop=1;jettySize=auto;html=1;exitX=0.5;exitY=1;exitDx=0;exitDy=0;entryX=0;entryY=0.5;entryDx=0;entryDy=0;" parent="1" source="7us5fRCtFp0MgMIEdXxI-16" target="7us5fRCtFp0MgMIEdXxI-19" edge="1">
          <mxGeometry relative="1" as="geometry" />
        </mxCell>
        <mxCell id="7us5fRCtFp0MgMIEdXxI-22" style="edgeStyle=orthogonalEdgeStyle;rounded=0;orthogonalLoop=1;jettySize=auto;html=1;exitX=1;exitY=0.5;exitDx=0;exitDy=0;" parent="1" source="7us5fRCtFp0MgMIEdXxI-16" edge="1">
          <mxGeometry relative="1" as="geometry">
            <mxPoint x="520" y="310" as="targetPoint" />
          </mxGeometry>
        </mxCell>
        <mxCell id="7us5fRCtFp0MgMIEdXxI-16" value="dados validos?" style="rhombus;whiteSpace=wrap;html=1;" parent="1" vertex="1">
          <mxGeometry x="400" y="265" width="80" height="90" as="geometry" />
        </mxCell>
        <mxCell id="7us5fRCtFp0MgMIEdXxI-17" value="" style="endArrow=classic;html=1;rounded=0;exitX=0.5;exitY=1;exitDx=0;exitDy=0;" parent="1" source="7us5fRCtFp0MgMIEdXxI-16" edge="1">
          <mxGeometry width="50" height="50" relative="1" as="geometry">
            <mxPoint x="390" y="400" as="sourcePoint" />
            <mxPoint x="440" y="390" as="targetPoint" />
          </mxGeometry>
        </mxCell>
        <mxCell id="7us5fRCtFp0MgMIEdXxI-18" value="altera estoque" style="rounded=0;whiteSpace=wrap;html=1;" parent="1" vertex="1">
          <mxGeometry x="390" y="390" width="120" height="60" as="geometry" />
        </mxCell>
        <mxCell id="7us5fRCtFp0MgMIEdXxI-19" value="&lt;font style=&quot;font-size: 16px;&quot;&gt;sim&lt;/font&gt;" style="text;html=1;align=center;verticalAlign=middle;whiteSpace=wrap;rounded=0;" parent="1" vertex="1">
          <mxGeometry x="440" y="340" width="60" height="30" as="geometry" />
        </mxCell>
        <mxCell id="7us5fRCtFp0MgMIEdXxI-24" value="mostrar erro" style="rounded=0;whiteSpace=wrap;html=1;" parent="1" vertex="1">
          <mxGeometry x="520" y="280" width="120" height="60" as="geometry" />
        </mxCell>
        <mxCell id="7us5fRCtFp0MgMIEdXxI-25" value="não" style="text;html=1;align=center;verticalAlign=middle;whiteSpace=wrap;rounded=0;" parent="1" vertex="1">
          <mxGeometry x="460" y="280" width="60" height="30" as="geometry" />
        </mxCell>
        <mxCell id="7us5fRCtFp0MgMIEdXxI-28" value="" style="endArrow=classic;html=1;rounded=0;exitX=0.5;exitY=1;exitDx=0;exitDy=0;" parent="1" source="7us5fRCtFp0MgMIEdXxI-7" edge="1">
          <mxGeometry width="50" height="50" relative="1" as="geometry">
            <mxPoint x="90" y="540" as="sourcePoint" />
            <mxPoint x="150" y="540" as="targetPoint" />
          </mxGeometry>
        </mxCell>
        <mxCell id="7us5fRCtFp0MgMIEdXxI-29" value="dados validos?" style="rhombus;whiteSpace=wrap;html=1;" parent="1" vertex="1">
          <mxGeometry x="97.5" y="540" width="105" height="110" as="geometry" />
        </mxCell>
        <mxCell id="7us5fRCtFp0MgMIEdXxI-30" value="" style="endArrow=classic;html=1;rounded=0;" parent="1" edge="1">
          <mxGeometry width="50" height="50" relative="1" as="geometry">
            <mxPoint x="202.5" y="594.5" as="sourcePoint" />
            <mxPoint x="262.5" y="594.5" as="targetPoint" />
          </mxGeometry>
        </mxCell>
        <mxCell id="7us5fRCtFp0MgMIEdXxI-31" value="mostrar erro" style="rounded=0;whiteSpace=wrap;html=1;" parent="1" vertex="1">
          <mxGeometry x="260" y="565" width="120" height="60" as="geometry" />
        </mxCell>
        <mxCell id="7us5fRCtFp0MgMIEdXxI-35" value="" style="endArrow=classic;html=1;rounded=0;entryX=1;entryY=0.5;entryDx=0;entryDy=0;" parent="1" target="7us5fRCtFp0MgMIEdXxI-7" edge="1">
          <mxGeometry width="50" height="50" relative="1" as="geometry">
            <mxPoint x="310" y="560" as="sourcePoint" />
            <mxPoint x="310" y="470" as="targetPoint" />
            <Array as="points">
              <mxPoint x="310" y="450" />
            </Array>
          </mxGeometry>
        </mxCell>
        <mxCell id="7us5fRCtFp0MgMIEdXxI-36" value="não" style="text;html=1;align=center;verticalAlign=middle;whiteSpace=wrap;rounded=0;" parent="1" vertex="1">
          <mxGeometry x="200" y="565" width="60" height="30" as="geometry" />
        </mxCell>
        <mxCell id="7us5fRCtFp0MgMIEdXxI-39" value="" style="endArrow=classic;html=1;rounded=0;exitX=0.5;exitY=1;exitDx=0;exitDy=0;entryX=0.458;entryY=0;entryDx=0;entryDy=0;entryPerimeter=0;" parent="1" source="7us5fRCtFp0MgMIEdXxI-29" target="7us5fRCtFp0MgMIEdXxI-40" edge="1">
          <mxGeometry width="50" height="50" relative="1" as="geometry">
            <mxPoint x="100" y="700" as="sourcePoint" />
            <mxPoint x="150" y="710" as="targetPoint" />
          </mxGeometry>
        </mxCell>
        <mxCell id="7us5fRCtFp0MgMIEdXxI-40" value="altera estoque" style="rounded=0;whiteSpace=wrap;html=1;" parent="1" vertex="1">
          <mxGeometry x="95" y="710" width="120" height="60" as="geometry" />
        </mxCell>
        <mxCell id="7us5fRCtFp0MgMIEdXxI-41" value="sim" style="text;html=1;align=center;verticalAlign=middle;whiteSpace=wrap;rounded=0;fontSize=16;" parent="1" vertex="1">
          <mxGeometry x="150" y="660" width="60" height="30" as="geometry" />
        </mxCell>
        <mxCell id="7us5fRCtFp0MgMIEdXxI-44" value="" style="endArrow=classic;html=1;rounded=0;" parent="1" edge="1">
          <mxGeometry width="50" height="50" relative="1" as="geometry">
            <mxPoint x="640" y="310" as="sourcePoint" />
            <mxPoint x="700" y="310" as="targetPoint" />
          </mxGeometry>
        </mxCell>
        <mxCell id="7us5fRCtFp0MgMIEdXxI-45" value="solucionar erro" style="rounded=0;whiteSpace=wrap;html=1;" parent="1" vertex="1">
          <mxGeometry x="700" y="280" width="120" height="60" as="geometry" />
        </mxCell>
        <mxCell id="7us5fRCtFp0MgMIEdXxI-46" value="" style="endArrow=classic;html=1;rounded=0;" parent="1" edge="1">
          <mxGeometry width="50" height="50" relative="1" as="geometry">
            <mxPoint x="380" y="595" as="sourcePoint" />
            <mxPoint x="440" y="595" as="targetPoint" />
          </mxGeometry>
        </mxCell>
        <mxCell id="7us5fRCtFp0MgMIEdXxI-47" value="solucionar erro" style="rounded=0;whiteSpace=wrap;html=1;" parent="1" vertex="1">
          <mxGeometry x="440" y="565" width="120" height="60" as="geometry" />
        </mxCell>
        <mxCell id="7us5fRCtFp0MgMIEdXxI-48" value="" style="endArrow=classic;html=1;rounded=0;exitX=0.5;exitY=1;exitDx=0;exitDy=0;" parent="1" source="7us5fRCtFp0MgMIEdXxI-40" edge="1">
          <mxGeometry width="50" height="50" relative="1" as="geometry">
            <mxPoint x="100" y="820" as="sourcePoint" />
            <mxPoint x="155" y="840" as="targetPoint" />
          </mxGeometry>
        </mxCell>
        <mxCell id="7us5fRCtFp0MgMIEdXxI-50" value="fim" style="ellipse;whiteSpace=wrap;html=1;" parent="1" vertex="1">
          <mxGeometry x="90" y="840" width="130" height="80" as="geometry" />
        </mxCell>
      </root>
    </mxGraphModel>
  </diagram>
  <diagram id="TqSMUrnULWolFZfTE3Vc" name="Página-2">
    <mxGraphModel dx="2261" dy="1951" grid="1" gridSize="10" guides="1" tooltips="1" connect="1" arrows="1" fold="1" page="1" pageScale="1" pageWidth="827" pageHeight="1169" math="0" shadow="0">
      <root>
        <mxCell id="0" />
        <mxCell id="1" parent="0" />
        <mxCell id="phmDzFK6CjH4NnrtKT9i-1" value="" style="rounded=1;whiteSpace=wrap;html=1;fillColor=#C3ABD0;strokeColor=#6c8ebf;arcSize=7;" parent="1" vertex="1">
          <mxGeometry x="-190" y="-40" width="300" height="360" as="geometry" />
        </mxCell>
        <mxCell id="phmDzFK6CjH4NnrtKT9i-8" value="&lt;b style=&quot;&quot;&gt;&lt;font style=&quot;font-size: 19px;&quot; face=&quot;Times New Roman&quot;&gt;gerente&lt;/font&gt;&lt;/b&gt;" style="text;html=1;align=center;verticalAlign=middle;whiteSpace=wrap;rounded=0;strokeColor=none;" parent="1" vertex="1">
          <mxGeometry x="-140" y="-30" width="180" height="30" as="geometry" />
        </mxCell>
        <mxCell id="CWzi8-A2L_F24nr1HhDY-1" value="" style="rounded=1;whiteSpace=wrap;html=1;fillColor=#C3ABD0;strokeColor=none;" parent="1" vertex="1">
          <mxGeometry x="180" y="-50" width="300" height="370" as="geometry" />
        </mxCell>
        <mxCell id="CWzi8-A2L_F24nr1HhDY-2" value="&lt;font size=&quot;1&quot; face=&quot;Times New Roman&quot; style=&quot;&quot;&gt;&lt;b style=&quot;font-size: 18px;&quot;&gt;Entrada de produtos&lt;/b&gt;&lt;/font&gt;" style="text;html=1;align=center;verticalAlign=middle;whiteSpace=wrap;rounded=0;strokeColor=none;" parent="1" vertex="1">
          <mxGeometry x="215" y="-30" width="230" height="30" as="geometry" />
        </mxCell>
        <mxCell id="CWzi8-A2L_F24nr1HhDY-3" value="&lt;font face=&quot;Times New Roman&quot; style=&quot;font-size: 15px;&quot;&gt;Entrou produto ?&lt;/font&gt;" style="text;html=1;align=center;verticalAlign=middle;whiteSpace=wrap;rounded=0;strokeColor=none;" parent="1" vertex="1">
          <mxGeometry x="160" y="10" width="180" height="30" as="geometry" />
        </mxCell>
        <mxCell id="Ni0w0wC6Z714BQRsBGUl-1" value="" style="rounded=1;whiteSpace=wrap;html=1;" vertex="1" parent="1">
          <mxGeometry x="-190" y="40" width="260" height="30" as="geometry" />
        </mxCell>
        <mxCell id="Ni0w0wC6Z714BQRsBGUl-2" value="&lt;font style=&quot;font-size: 13px;&quot; face=&quot;Times New Roman&quot;&gt;Quantidade de produtos&lt;/font&gt;" style="text;html=1;align=center;verticalAlign=middle;whiteSpace=wrap;rounded=0;" vertex="1" parent="1">
          <mxGeometry x="-180" y="10" width="140" height="30" as="geometry" />
        </mxCell>
        <mxCell id="Ni0w0wC6Z714BQRsBGUl-3" value="" style="rounded=1;whiteSpace=wrap;html=1;" vertex="1" parent="1">
          <mxGeometry x="-180" y="100" width="260" height="30" as="geometry" />
        </mxCell>
        <mxCell id="Ni0w0wC6Z714BQRsBGUl-4" value="&lt;font face=&quot;Times New Roman&quot;&gt;Qual é o produto&lt;/font&gt;" style="text;html=1;align=center;verticalAlign=middle;whiteSpace=wrap;rounded=0;" vertex="1" parent="1">
          <mxGeometry x="-200" y="70" width="140" height="30" as="geometry" />
        </mxCell>
        <mxCell id="Ni0w0wC6Z714BQRsBGUl-5" value="" style="rounded=1;whiteSpace=wrap;html=1;" vertex="1" parent="1">
          <mxGeometry x="-180" y="160" width="260" height="30" as="geometry" />
        </mxCell>
        <mxCell id="Ni0w0wC6Z714BQRsBGUl-6" value="&lt;font face=&quot;Times New Roman&quot;&gt;Qual marca&lt;/font&gt;" style="text;html=1;align=center;verticalAlign=middle;whiteSpace=wrap;rounded=0;" vertex="1" parent="1">
          <mxGeometry x="-200" y="130" width="110" height="30" as="geometry" />
        </mxCell>
        <mxCell id="Ni0w0wC6Z714BQRsBGUl-9" value="&lt;font style=&quot;font-size: 14px;&quot; face=&quot;Times New Roman&quot;&gt;Salvar&lt;/font&gt;" style="rounded=1;whiteSpace=wrap;html=1;" vertex="1" parent="1">
          <mxGeometry x="-100" y="240" width="100" height="30" as="geometry" />
        </mxCell>
        <mxCell id="Ni0w0wC6Z714BQRsBGUl-11" value="" style="rounded=1;whiteSpace=wrap;html=1;" vertex="1" parent="1">
          <mxGeometry x="190" y="40" width="260" height="30" as="geometry" />
        </mxCell>
        <mxCell id="Ni0w0wC6Z714BQRsBGUl-12" value="" style="rounded=1;whiteSpace=wrap;html=1;" vertex="1" parent="1">
          <mxGeometry x="190" y="100" width="260" height="30" as="geometry" />
        </mxCell>
        <mxCell id="Ni0w0wC6Z714BQRsBGUl-13" value="&lt;font style=&quot;font-size: 13px;&quot; face=&quot;Times New Roman&quot;&gt;Quantos produtos&lt;/font&gt;" style="text;html=1;align=center;verticalAlign=middle;whiteSpace=wrap;rounded=0;" vertex="1" parent="1">
          <mxGeometry x="180" y="70" width="120" height="30" as="geometry" />
        </mxCell>
        <mxCell id="Ni0w0wC6Z714BQRsBGUl-14" value="" style="rounded=1;whiteSpace=wrap;html=1;" vertex="1" parent="1">
          <mxGeometry x="190" y="160" width="260" height="30" as="geometry" />
        </mxCell>
        <mxCell id="Ni0w0wC6Z714BQRsBGUl-15" value="Qual marca" style="text;html=1;align=center;verticalAlign=middle;whiteSpace=wrap;rounded=0;" vertex="1" parent="1">
          <mxGeometry x="180" y="130" width="100" height="30" as="geometry" />
        </mxCell>
        <mxCell id="Ni0w0wC6Z714BQRsBGUl-16" value="" style="rounded=1;whiteSpace=wrap;html=1;" vertex="1" parent="1">
          <mxGeometry x="190" y="220" width="260" height="30" as="geometry" />
        </mxCell>
        <mxCell id="Ni0w0wC6Z714BQRsBGUl-17" value="Esta tudo certo com o produto&amp;nbsp;" style="text;html=1;align=center;verticalAlign=middle;whiteSpace=wrap;rounded=0;" vertex="1" parent="1">
          <mxGeometry x="190" y="190" width="180" height="30" as="geometry" />
        </mxCell>
        <mxCell id="Ni0w0wC6Z714BQRsBGUl-18" value="Salvar" style="rounded=1;whiteSpace=wrap;html=1;" vertex="1" parent="1">
          <mxGeometry x="270" y="270" width="120" height="30" as="geometry" />
        </mxCell>
        <mxCell id="iEz5dgPcu82Q_0-uGesA-1" value="" style="rounded=1;whiteSpace=wrap;html=1;fillColor=#C3ABD0;strokeColor=none;" vertex="1" parent="1">
          <mxGeometry x="555" y="-50" width="290" height="380" as="geometry" />
        </mxCell>
        <mxCell id="K2CZq30hGhJys-gNEc_X-1" value="&lt;b&gt;&lt;font style=&quot;font-size: 19px;&quot; face=&quot;Times New Roman&quot;&gt;Saída de produtos&lt;/font&gt;&lt;/b&gt;" style="text;html=1;align=center;verticalAlign=middle;whiteSpace=wrap;rounded=0;" vertex="1" parent="1">
          <mxGeometry x="600" y="-30" width="200" height="30" as="geometry" />
        </mxCell>
        <mxCell id="K2CZq30hGhJys-gNEc_X-2" value="" style="rounded=1;whiteSpace=wrap;html=1;" vertex="1" parent="1">
          <mxGeometry x="570" y="40" width="240" height="30" as="geometry" />
        </mxCell>
        <mxCell id="K2CZq30hGhJys-gNEc_X-3" value="&lt;font style=&quot;font-size: 13px;&quot; face=&quot;Times New Roman&quot;&gt;Saiu produto&lt;/font&gt;" style="text;html=1;align=center;verticalAlign=middle;whiteSpace=wrap;rounded=0;" vertex="1" parent="1">
          <mxGeometry x="530" y="10" width="155" height="30" as="geometry" />
        </mxCell>
        <mxCell id="K2CZq30hGhJys-gNEc_X-4" value="" style="rounded=1;whiteSpace=wrap;html=1;" vertex="1" parent="1">
          <mxGeometry x="570" y="100" width="240" height="30" as="geometry" />
        </mxCell>
        <mxCell id="K2CZq30hGhJys-gNEc_X-6" value="&lt;font style=&quot;font-size: 13px;&quot; face=&quot;Times New Roman&quot;&gt;Quantos produtos&lt;/font&gt;" style="text;html=1;align=center;verticalAlign=middle;whiteSpace=wrap;rounded=0;" vertex="1" parent="1">
          <mxGeometry x="540" y="70" width="150" height="30" as="geometry" />
        </mxCell>
        <mxCell id="K2CZq30hGhJys-gNEc_X-7" value="" style="rounded=1;whiteSpace=wrap;html=1;" vertex="1" parent="1">
          <mxGeometry x="570" y="162.5" width="240" height="27.5" as="geometry" />
        </mxCell>
        <mxCell id="K2CZq30hGhJys-gNEc_X-8" value="Qual marca" style="text;html=1;align=center;verticalAlign=middle;whiteSpace=wrap;rounded=0;" vertex="1" parent="1">
          <mxGeometry x="530" y="132.5" width="140" height="30" as="geometry" />
        </mxCell>
      </root>
    </mxGraphModel>
  </diagram>
  <diagram id="VRKnW6gpY4XB0QQcoldX" name="Página-3">
    <mxGraphModel dx="1434" dy="782" grid="1" gridSize="10" guides="1" tooltips="1" connect="1" arrows="1" fold="1" page="1" pageScale="1" pageWidth="827" pageHeight="1169" math="0" shadow="0">
      <root>
        <mxCell id="0" />
        <mxCell id="1" parent="0" />
      </root>
    </mxGraphModel>
  </diagram>
</mxfile>
